<svg width="18" height="16" viewBox="0 0 18 16" fill="none" xmlns="http://www.w3.org/2000/svg">
<path fill-rule="evenodd" clip-rule="evenodd" d="M0.757895 0C0.340461 0 0 0.340461 0 0.757895C0 1.17533 0.340461 1.51579 0.757895 1.51579H2.43947L4.42895 9.47368C4.5977 10.1487 5.20164 10.6105 5.89737 10.6105L6.82105 10.6105C5.57466 10.6105 4.54736 11.6378 4.54736 12.8842C4.54736 14.1306 5.57466 15.1579 6.82105 15.1579C8.06743 15.1579 9.09473 14.1306 9.09473 12.8842C9.09473 11.6378 8.06743 10.6105 6.82105 10.6105H13.6421C12.3957 10.6105 11.3684 11.6378 11.3684 12.8842C11.3684 14.1306 12.3957 15.1579 13.6421 15.1579C14.8885 15.1579 15.9158 14.1306 15.9158 12.8842C15.9158 11.6378 14.8885 10.6105 13.6421 10.6105L14.5895 10.6105C15.2734 10.6105 15.8536 10.1576 16.0342 9.49737L18 2.27368H5.30526L5.68421 3.78947H16.0342L14.5895 9.09474H5.89737L3.90789 1.13684C3.73915 0.461842 3.1352 0 2.43947 0H0.757895ZM6.82106 12.1263C7.24738 12.1263 7.57896 12.4579 7.57896 12.8842C7.57896 13.3105 7.24738 13.6421 6.82106 13.6421C6.39474 13.6421 6.06317 13.3105 6.06317 12.8842C6.06317 12.4579 6.39474 12.1263 6.82106 12.1263ZM14.4 12.8842C14.4 12.4579 14.0684 12.1263 13.6421 12.1263C13.2158 12.1263 12.8842 12.4579 12.8842 12.8842C12.8842 13.3105 13.2158 13.6421 13.6421 13.6421C14.0684 13.6421 14.4 13.3105 14.4 12.8842Z" fill="white"/>
</svg>
