<svg width="32" height="32" viewBox="0 0 32 32" fill="none" xmlns="http://www.w3.org/2000/svg">
<rect width="32" height="32" rx="10" fill="white"/>
<path d="M15.4141 11.1753L15.9998 11.9073L16.5854 11.1753C16.6468 11.0985 16.6878 11.0442 16.7201 11.0014C16.7692 10.9363 16.7981 10.8981 16.8481 10.8481C18.3122 9.38397 20.6873 9.38397 22.1514 10.8481C23.6132 12.3098 23.6155 14.6796 22.1585 16.1443L15.9998 21.9676L9.841 16.1443C8.38398 14.6796 8.38634 12.3098 9.84808 10.8481C11.3122 9.38397 13.6873 9.38397 15.1514 10.8481C15.2014 10.8981 15.2303 10.9363 15.2794 11.0014C15.3117 11.0442 15.3527 11.0985 15.4141 11.1753Z" stroke="#AA7D3C" stroke-width="1.5"/>
</svg>
